<?xml version="1.0" encoding="utf-8"?>
<!-- Generator: Adobe Illustrator 26.3.1, SVG Export Plug-In . SVG Version: 6.00 Build 0)  -->
<svg version="1.1" id="レイヤー_1" xmlns="http://www.w3.org/2000/svg" xmlns:xlink="http://www.w3.org/1999/xlink" x="0px"
	 y="0px" viewBox="0 0 256 250" style="enable-background:new 0 0 256 250;" xml:space="preserve">
<style type="text/css">
	.st0{fill:#146DAB;}
	.st1{fill:#339ECC;}
	.st2{fill:#FFFFFF;}
	.st3{fill:#040000;}
	.st4{fill:#DFECE5;}
</style>
<g>
	<polygon class="st0" points="204.6,229.7 129.4,250 53.2,229.7 36.1,40.1 219.9,40.1 	"/>
	<polygon class="st1" points="129.4,54.8 129.4,236.2 191.5,218.2 204.6,55.9 	"/>
	<polygon class="st2" points="69.3,76.3 72.3,99.5 159.4,99.5 158.4,123.4 102.2,123.4 103.9,146.9 157.4,146.9 156.1,177.4 
		129.4,185 102.8,177.9 101.7,159.9 77.7,159.9 80.4,194.8 129.4,209.5 177.9,195.9 186.4,76.3 	"/>
	<polygon class="st3" points="106.3,19.8 106.3,27.9 85.2,27.9 85.2,0 106.7,0 106.7,8.2 93.6,8.2 93.6,19.8 	"/>
	<polygon class="st3" points="137.7,0.1 137.7,7.5 124.2,7.5 137.7,20.9 137.7,27.9 112.6,27.9 112.6,20.9 126.6,20.9 112.3,7.2 
		112.3,0.1 	"/>
	<polygon class="st3" points="169.6,0.1 169.6,7.5 156.1,7.5 169.6,20.9 169.6,27.9 144.4,27.9 144.4,20.9 158.4,20.9 144.1,7.2 
		144.1,0.1 	"/>
	<polygon class="st1" points="159.4,99.5 129.4,99.5 129.4,123.4 158.4,123.4 	"/>
	<polygon class="st1" points="157.4,146.9 129.4,146.9 129.4,185 156.1,177.4 	"/>
	<polygon class="st1" points="129.4,54.8 129.4,76.3 186.4,76.3 177.9,195.9 129.4,209.5 129.4,236.2 191.5,218.2 204.6,55.9 	"/>
	<polygon class="st4" points="102.2,123.4 103.9,146.9 129.4,146.9 129.4,123.4 	"/>
	<polygon class="st4" points="69.3,76.3 72.3,99.5 129.4,99.5 129.4,76.3 	"/>
	<polygon class="st4" points="102.8,177.9 101.7,159.9 77.7,159.9 80.4,194.8 129.4,209.5 129.4,185 	"/>
	<polygon class="st2" points="186.4,76.3 129.4,76.3 129.4,99.5 159.4,99.5 158.4,123.4 129.4,123.4 129.4,146.9 157.4,146.9 
		156.1,177.4 129.4,185 129.4,209.5 177.9,195.9 	"/>
</g>
</svg>
