<?xml version="1.0" encoding="utf-8"?>
<!-- Generator: Adobe Illustrator 26.3.1, SVG Export Plug-In . SVG Version: 6.00 Build 0)  -->
<svg version="1.1" id="レイヤー_1" xmlns="http://www.w3.org/2000/svg" xmlns:xlink="http://www.w3.org/1999/xlink" x="0px"
	 y="0px" viewBox="0 0 256 250" style="enable-background:new 0 0 256 250;" xml:space="preserve">
<style type="text/css">
	.st0{fill:#0ACF83;}
	.st1{fill:#A259FF;}
	.st2{fill:#F24E1E;}
	.st3{fill:#FF7262;}
	.st4{fill:#1ABCFE;}
</style>
<g>
	<path class="st0" d="M86.3,250c23,0,41.7-18.7,41.7-41.7v-41.7H86.3c-23,0-41.7,18.7-41.7,41.7S63.3,250,86.3,250z"/>
	<path class="st1" d="M44.7,125c0-23,18.7-41.7,41.7-41.7H128v83.3H86.3C63.3,166.7,44.7,148,44.7,125z"/>
	<path class="st2" d="M44.7,41.7C44.7,18.7,63.3,0,86.3,0H128v83.3H86.3C63.3,83.3,44.7,64.7,44.7,41.7z"/>
	<path class="st3" d="M128,0h41.7c23,0,41.7,18.7,41.7,41.7s-18.7,41.7-41.7,41.7H128V0z"/>
	<path class="st4" d="M211.3,125c0,23-18.7,41.7-41.7,41.7S128,148,128,125s18.7-41.7,41.7-41.7S211.3,102,211.3,125z"/>
</g>
</svg>
