<?xml version="1.0" encoding="utf-8"?>
<!-- Generator: Adobe Illustrator 26.3.1, SVG Export Plug-In . SVG Version: 6.00 Build 0)  -->
<svg version="1.1" id="レイヤー_1" xmlns="http://www.w3.org/2000/svg" xmlns:xlink="http://www.w3.org/1999/xlink" x="0px"
	 y="0px" viewBox="0 0 256 250" style="enable-background:new 0 0 256 250;" xml:space="preserve">
<style type="text/css">
	.st0{fill:#1E3202;}
	.st1{fill:#9AE740;}
</style>
<g>
	<path class="st0" d="M45.3,0h165.3C235.7,0,256,20.3,256,45.3v158.9c0,25.1-20.3,45.3-45.3,45.3H45.3C20.3,249.6,0,229.3,0,204.3
		V45.3C0,20.3,20.3,0,45.3,0z"/>
	<path class="st1" d="M94,65.7c-7.5-2.3-21.4-2.5-26.8-2.5H38.2c-0.4,0-0.8,0.3-0.8,0.8v111.4c0,0.4,0.3,0.8,0.8,0.8h42.3
		c10.8,0,23.6-6.4,27.9-9.6c4.3-3.2,24.6-16,25-46.3C133.8,89.8,117.1,70.7,94,65.7z M95.6,148.9c-6.9,5.1-11.3,6.4-16,6.4
		c-2.8,0-18.8,0-18.8,0V83.9c0,0,12.3,0,14.9,0c2.9,0,10.9,1,15.3,3.6c11.7,6.8,17.9,17.2,17.7,32.4
		C108.7,135.1,101.1,144.8,95.6,148.9z"/>
	<path class="st1" d="M144.1,90.9c-0.5,0-0.9,0.4-0.8,0.9c0.1,3.4,0.6,15.8,0.6,17.9v65.8c0,0.4,0.3,0.6,0.6,0.6h22.2
		c0.4,0,0.6-0.3,0.6-0.6v-60.2c0,0,6.7-5.7,14.8-5.4c8.1,0.4,12.1,4.8,12.6,11c0.4,5.8,0.1,48.8,0,54.6c0,0.4,0.3,0.6,0.6,0.6h23.2
		c0.4,0,0.6-0.3,0.6-0.6c0-6-0.1-53.6,0-57c0.1-3.6-1.6-15.5-9.2-22.2c-7.5-6.7-22.7-9.4-32.6-5.3c-9.2,3.8-11.5,6.6-11.5,6.6
		s-0.6-5.6-2.2-6.7C162.6,90.9,147.9,90.9,144.1,90.9z"/>
</g>
</svg>
