<?xml version="1.0" encoding="utf-8"?>
<!-- Generator: Adobe Illustrator 26.3.1, SVG Export Plug-In . SVG Version: 6.00 Build 0)  -->
<svg version="1.1" id="レイヤー_1" xmlns="http://www.w3.org/2000/svg" xmlns:xlink="http://www.w3.org/1999/xlink" x="0px"
	 y="0px" viewBox="0 0 280 148" style="enable-background:new 0 0 280 148;" xml:space="preserve">
<style type="text/css">
	.st0{fill:url(#SVGID_1_);}
	.st1{fill:#6181B6;}
	.st2{fill:#FFFFFF;}
	.st3{fill:#000004;}
</style>
<g>
	
		<radialGradient id="SVGID_1_" cx="890.9076" cy="2341.7048" r="397.093" gradientTransform="matrix(0.463 0 0 0.463 -328.4336 -1058.3228)" gradientUnits="userSpaceOnUse">
		<stop  offset="0" style="stop-color:#FFFFFF"/>
		<stop  offset="0.5" style="stop-color:#4C6B97"/>
		<stop  offset="1" style="stop-color:#231F20"/>
	</radialGradient>
	<ellipse class="st0" cx="140" cy="73.6" rx="140" ry="73.6"/>
	<ellipse class="st1" cx="140" cy="73.6" rx="134.5" ry="68.1"/>
	<g>
		<path class="st2" d="M167.2,95.7l6.7-34.3c1.5-7.8,0.2-13.6-3.7-17.2c-3.8-3.5-10.4-5.2-20-5.2h-11.6l3.3-17.1
			c0.1-0.7,0-1.3-0.4-1.9c-0.4-0.5-1-0.8-1.6-0.8h-16c-1.1,0-2,0.8-2.2,1.8l-7.1,36.4c-0.7-4.2-2.2-7.7-4.8-10.5
			c-4.7-5.4-12-8.1-22-8.1H57c-1.1,0-2,0.8-2.2,1.7l-14.3,73.9c-0.1,0.7,0,1.3,0.4,1.9c0.4,0.5,1,0.8,1.6,0.8h16.1
			c1.1,0,2-0.8,2.2-1.8l3.5-17.8h11.9c6.2,0,11.6-0.7,15.6-2c4.3-1.4,8.1-3.7,11.5-6.9c2.7-2.5,5-5.4,6.8-8.4L107.3,95
			c-0.1,0.7,0,1.3,0.4,1.9s1,0.8,1.6,0.8h16c1.1,0,2-0.8,2.2-1.8l7.9-40.5h10.9c4.7,0,6,0.9,6.5,1.3c0.3,0.3,1,1.6,0.2,5.7
			l-6.3,32.7c-0.1,0.7,0,1.3,0.4,1.9c0.4,0.5,1,0.8,1.6,0.8h16.4C166.1,97.5,167,96.7,167.2,95.7z M93.3,67.3
			c-1,5.1-2.8,8.9-5.6,10.9s-7.2,3.2-13.1,3.2h-7.1l5.1-26.5h9.2c6.8,0,9.5,1.4,10.6,2.6C93.8,59.3,94.2,62.7,93.3,67.3z"/>
		<path class="st2" d="M235.5,46.9c-4.7-5.4-12-8.1-22-8.1h-31c-1.1,0-2,0.8-2.2,1.8L166,114.4c-0.1,0.7,0,1.3,0.4,1.9
			c0.4,0.5,1,0.8,1.6,0.8h16.1c1.1,0,2-0.8,2.2-1.8l3.5-17.8h11.9c6.2,0,11.6-0.7,15.6-2c4.3-1.4,8.1-3.7,11.5-6.9
			c2.8-2.6,5.2-5.6,7-8.8s3.1-6.7,3.8-10.5C241.6,59.8,240.2,52.4,235.5,46.9z M218.8,67.3c-1,5.1-2.8,8.9-5.6,10.9
			s-7.2,3.2-13.1,3.2H193l5.1-26.5h9.2c6.8,0,9.5,1.4,10.6,2.6C219.4,59.3,219.7,62.7,218.8,67.3z"/>
	</g>
	<g>
		<path class="st3" d="M81.8,52.7c6.1,0,10.2,1.1,12.2,3.4c2.1,2.3,2.5,6.1,1.4,11.6c-1.1,5.7-3.3,9.8-6.5,12.2
			c-3.2,2.4-8,3.6-14.4,3.6h-9.7l6-30.8H81.8z M42.7,114.8h16.1l3.8-19.6h13.8c6.1,0,11-0.7,15-2c3.9-1.3,7.4-3.4,10.7-6.5
			c2.7-2.5,4.9-5.2,6.6-8.2c1.6-3,2.8-6.2,3.5-9.8c1.8-8.8,0.4-15.5-3.8-20.5S97.2,41,87.9,41H57L42.7,114.8z"/>
		<path class="st3" d="M123.9,21.4h16L136.1,41h14.2c9,0,15.1,1.5,18.5,4.7s4.4,8.2,3.1,15.2l-6.7,34.3H149l6.3-32.7
			c0.8-3.7,0.4-6.2-0.8-7.5s-3.9-2.1-8-2.1h-12.8l-8.2,42.3h-16L123.9,21.4z"/>
		<path class="st3" d="M207.3,52.7c6.1,0,10.2,1.1,12.2,3.4c2.1,2.3,2.5,6.1,1.4,11.6c-1.1,5.7-3.3,9.8-6.5,12.2
			c-3.2,2.4-8,3.6-14.4,3.6h-9.7l6-30.8H207.3z M168.1,114.8h16.1l3.8-19.6h13.8c6.1,0,11-0.7,15-2c3.9-1.3,7.4-3.4,10.7-6.5
			c2.7-2.5,4.9-5.2,6.6-8.2c1.6-3,2.8-6.2,3.5-9.8c1.8-8.8,0.4-15.5-3.8-20.5c-4.3-4.9-11-7.3-20.3-7.3h-31L168.1,114.8z"/>
	</g>
</g>
</svg>
