<?xml version="1.0" encoding="utf-8"?>
<!-- Generator: Adobe Illustrator 26.3.1, SVG Export Plug-In . SVG Version: 6.00 Build 0)  -->
<svg version="1.1" id="レイヤー_1" xmlns="http://www.w3.org/2000/svg" xmlns:xlink="http://www.w3.org/1999/xlink" x="0px"
	 y="0px" viewBox="0 0 256 250" style="enable-background:new 0 0 256 250;" xml:space="preserve">
<style type="text/css">
	.st0{fill:#D54C20;}
	.st1{fill:#E3662F;}
	.st2{fill:#FAEDF3;}
	.st3{fill:#040000;}
	.st4{fill:none;}
	.st5{fill:#EEE7EB;}
</style>
<g>
	<polygon class="st0" points="204.5,229.7 129.5,250 53.4,229.7 36.3,40.6 219.7,40.6 	"/>
	<polygon class="st1" points="129.4,55.2 129.4,236.2 191.4,218.3 204.5,56.3 	"/>
	<polygon class="st2" points="184.7,102 185.8,78.6 69.5,78.6 76.5,148.7 155.9,148.7 155.9,177 129.3,184.6 102.6,177.5 
		102.6,161.8 78.2,161.8 80.3,197.1 128.2,212.3 174.9,196 180.9,125.3 98.3,125.3 95.6,102.5 	"/>
	<rect x="68.3" class="st3" width="9.1" height="27.8"/>
	
		<rect x="107.7" y="-8.1" transform="matrix(-1.836970e-16 1 -1 -1.836970e-16 116.787 -107.655)" class="st3" width="9.1" height="25.3"/>
	
		<rect x="173.6" y="12.1" transform="matrix(-1.836970e-16 1 -1 -1.836970e-16 201.4425 -154.9135)" class="st3" width="9.1" height="22.3"/>
	<rect x="86.1" class="st3" width="9.1" height="27.8"/>
	<rect x="107.9" class="st3" width="9.1" height="27.8"/>
	<rect x="130" class="st3" width="8.6" height="27.8"/>
	<rect x="152.3" class="st3" width="8.6" height="27.8"/>
	<polygon class="st3" points="145.7,22.5 142.9,14.9 152.4,0.1 157.8,3.6 	"/>
	<polygon class="st3" points="145.7,22.5 148.5,14.9 139,0.1 133.7,3.6 	"/>
	<rect x="166.6" class="st3" width="8.6" height="27.8"/>
	
		<rect x="77.2" y="3.2" transform="matrix(-1.836970e-16 1 -1 -1.836970e-16 95.6966 -67.8661)" class="st3" width="9.1" height="21.3"/>
	<polygon class="st4" points="98.3,125.3 129.4,125.3 129.4,102.3 95.6,102.5 	"/>
	<polygon class="st1" points="155.9,148.7 129.4,148.7 129.4,184.5 155.9,177 	"/>
	<polygon class="st1" points="129.4,55.2 129.4,78.6 185.8,78.6 184.7,102 129.4,102.3 129.4,125.3 180.9,125.3 174.9,196 
		129.4,211.9 129.4,236.2 191.4,218.3 204.5,56.3 	"/>
	<polygon class="st5" points="129.3,184.6 102.6,177.5 102.6,161.8 78.2,161.8 80.3,197.1 128.2,212.3 129.4,211.9 129.4,184.5 	"/>
	<polygon class="st5" points="98.3,125.3 95.6,102.5 129.4,102.3 129.4,78.6 69.5,78.6 76.5,148.7 129.4,148.7 129.4,125.3 	"/>
	<polygon class="st2" points="184.7,102 185.8,78.6 129.4,78.6 129.4,102.3 	"/>
	<polygon class="st2" points="180.9,125.3 129.4,125.3 129.4,148.7 155.9,148.7 155.9,177 129.4,184.5 129.4,211.9 174.9,196 	"/>
</g>
</svg>
