<?xml version="1.0" encoding="utf-8"?>
<!-- Generator: Adobe Illustrator 26.3.1, SVG Export Plug-In . SVG Version: 6.00 Build 0)  -->
<svg version="1.1" id="レイヤー_1" xmlns="http://www.w3.org/2000/svg" xmlns:xlink="http://www.w3.org/1999/xlink" x="0px"
	 y="0px" viewBox="0 0 256 250" style="enable-background:new 0 0 256 250;" xml:space="preserve">
<style type="text/css">
	.st0{fill:#DA9C2D;}
	.st1{fill:#E4B62C;}
	.st2{fill:#040000;}
	.st3{fill:#FFFFFF;}
	.st4{fill:none;}
	.st5{fill:#E9EBED;}
</style>
<g>
	<polygon class="st0" points="204.7,229.6 129.5,250 53.1,229.6 36,39.9 220,39.9 	"/>
	<polygon class="st1" points="129.5,54.6 129.5,236.2 191.6,218.2 204.7,55.7 	"/>
	<polygon class="st2" points="156.3,0 156.3,7.3 142.9,7.3 156.3,20.6 156.3,27.6 131.3,27.6 131.3,20.6 145.2,20.6 131,7 131,0 	
		"/>
	<polygon class="st3" points="158.2,115.1 182.2,115.1 177.8,65.5 85.7,65.5 78,148.4 156.5,148.4 154.4,180 129.8,186.6 
		100.4,178.4 100.4,161.5 77.5,161.5 79.7,196.9 128.7,211.7 177.3,196.4 182.2,125.5 102.6,125.5 106.4,87.9 157.6,87.9 	"/>
	<polygon class="st2" points="124.9,0.9 115.3,0.9 115.3,18.8 101.7,18.8 101.7,28.4 124.9,28.4 	"/>
	<polygon class="st4" points="102.6,125.5 129.5,125.5 129.5,87.9 106.4,87.9 	"/>
	<polygon class="st1" points="154.4,180 156.5,148.4 129.5,148.4 129.5,186.5 129.8,186.6 	"/>
	<polygon class="st1" points="129.5,54.6 129.5,65.5 177.8,65.5 182.2,115.1 158.2,115.1 157.6,87.9 129.5,87.9 129.5,125.5 
		182.2,125.5 177.3,196.4 129.5,211.4 129.5,236.2 191.6,218.2 204.7,55.7 	"/>
	<polygon class="st5" points="100.4,178.4 100.4,161.5 77.5,161.5 79.7,196.9 128.7,211.7 129.5,211.4 129.5,186.5 	"/>
	<polygon class="st5" points="102.6,125.5 106.4,87.9 129.5,87.9 129.5,65.5 85.7,65.5 78,148.4 129.5,148.4 129.5,125.5 	"/>
	<polygon class="st3" points="182.2,125.5 129.5,125.5 129.5,148.4 156.5,148.4 154.4,180 129.8,186.6 129.5,186.5 129.5,211.4 
		177.3,196.4 	"/>
	<polygon class="st3" points="157.6,87.9 158.2,115.1 182.2,115.1 177.8,65.5 129.5,65.5 129.5,87.9 	"/>
</g>
</svg>
