<?xml version="1.0" encoding="UTF-8"?>
<svg id="_レイヤー_1" data-name=" レイヤー 1" xmlns="http://www.w3.org/2000/svg" version="1.1" viewBox="0 0 390 240">
  <defs>
    <style>
      .cls-1 {
        fill: #45b046;
      }

      .cls-1, .cls-2, .cls-3, .cls-4, .cls-5 {
        stroke-width: 0px;
      }

      .cls-6 {
        fill: #000;
        font-size: 12px;
      }

      .cls-6, .cls-7, .cls-8 {
        font-family: HiraginoUDSansStd-W6-83pv-RKSJ-H, 'Hiragino UD Sans Std';
      }

      .cls-7 {
        fill: #208c20;
        font-size: 13px;
      }

      .cls-2 {
        fill: #040000;
      }

      .cls-3 {
        fill: #e47f10;
      }

      .cls-8 {
        fill: #cea600;
        font-size: 21px;
      }

      .cls-4, .cls-9 {
        fill: #fff;
      }

      .cls-10 {
        fill: #f44727;
        stroke: #fff;
      }

      .cls-10, .cls-9 {
        stroke-miterlimit: 10;
      }

      .cls-5 {
        fill: #f9d500;
      }

      .cls-9 {
        stroke: #231815;
        stroke-width: 11px;
      }
    </style>
  </defs>
  <path class="cls-9" d="M370.23,151.75l-42.65,33.49c-1.93,1.38-4.29,1.88-6.55,1.58s-4.39-1.4-5.91-3.24c-2.25-2.75-6.43-3.31-9.34-1.24,0,0-18.36,11.78-36.02,22.65-.05.03-.09.06-.14.08-1.52.85-15.05,8.29-28.96,14.8-3.52,1.66-7.08,3.25-10.46,4.67-24.48,10.21-61.74-9.18-74.04-18.79-18.59-14.5-44.58-33.88-69.86-82.47-16.98-6.08-35.02-12.66-41.95-15.53-14.54-6.02-34.55-13.03-31.67-34.7,4.89-36.78,49.19-48.68,73.64-52.65,20.37-3.3,38.79-6.06,57.84-5.48,18.04.55,42.37,10.39,49.04,16.27,5.44,2.31,10.33,5.69,14.2,10.39,4.53,5.5,12.92,6.62,18.73,2.49,0,0,30.42-19.21,51.87-16.61,35.77,4.34,96.97,86.05,99.38,100.17,1.61,9.49.55,17.43-7.14,24.12Z"/>
  <path class="cls-1" d="M16.61,61.87c11.47-28.68,44.92-37.45,69.71-41.47,20.37-3.3,38.79-6.06,57.84-5.49,19.75.6,47.05,12.34,50.44,17.82,3.39,5.48-63.85,49.38-63.85,49.38L16.61,61.87Z"/>
  <path class="cls-1" d="M81.96,114.61c26.6,55.01,54.55,75.8,74.2,91.14,12.3,9.6,49.56,28.99,74.04,18.78,17.55-7.32,39.56-19.55,39.56-19.55l-131.65-104.47-56.15,14.09Z"/>
  <path class="cls-5" d="M377.37,127.63c-2.4-14.12-63.61-95.83-99.38-100.17-21.44-2.6-51.86,16.6-51.86,16.6-5.81,4.13-14.19,3.01-18.72-2.49h0c-16.65-20.23-52.17-15.82-68.83-9.15-5.6,2.24-17.12,9.49-17.12,9.49-16.46-2.41-27.04-2.06-53.3,1.82-27.19,4.01-54.68,7.49-55.46,29.33-.78,21.84,17.14,28.67,31.67,34.69,14.54,6.02,77.93,28.29,77.93,28.29l.1-.02,38.09,46.28c3.01,3.66,8.59,4.4,12.45,1.66l5.24-3.72c5.47-3.89,13.37-2.84,17.64,2.35,0,0,10.69,12,28.91,30.51,7.45,7.57,17.01,8.44,24,4.47,19.29-10.97,57.08-35.22,57.08-35.22,2.9-2.06,7.08-1.5,9.34,1.24h0c3.01,3.66,8.59,4.4,12.45,1.66l42.64-33.49c7.7-6.69,8.75-14.63,7.14-24.12Z"/>
  <circle class="cls-2" cx="121.59" cy="40.75" r="6.72"/>
  <circle class="cls-3" cx="181.39" cy="208.61" r="5.52" transform="translate(-49.31 360.91) rotate(-82.42)"/>
  <circle class="cls-3" cx="239.07" cy="60.17" r="5.52"/>
  <circle class="cls-3" cx="216.61" cy="110.2" r="5.52" transform="translate(78.82 310.39) rotate(-82.42)"/>
  <path class="cls-3" d="M173.72,92.28c-.22-.45-.7-.72-1.2-.67l-6.02.58-2.9-5.3c-.24-.44-.73-.69-1.23-.62s-.9.44-1.01.93l-1.31,5.9-5.94,1.12c-.49.09-.88.48-.97.98-.09.5.14.99.58,1.25l5.21,3.07-.77,5.99c-.06.5.19.99.63,1.22.44.24.99.17,1.37-.16l4.53-4,5.46,2.59c.46.22,1,.13,1.36-.22.36-.35.47-.89.27-1.35l-2.41-5.54,4.15-4.4c.35-.37.43-.91.21-1.36Z"/>
  <text class="cls-6" transform="translate(90.96 64.68)"><tspan x="0" y="0">東大和市駅</tspan></text>
  <text class="cls-6" transform="translate(222.97 81.69)"><tspan x="0" y="0">小平駅</tspan></text>
  <text class="cls-6" transform="translate(191.97 213.69)"><tspan x="0" y="0">国分寺駅</tspan></text>
  <text class="cls-6" transform="translate(216.97 132.69)"><tspan x="0" y="0">鷹の台駅</tspan></text>
  <text class="cls-6" transform="translate(145.97 124.69)"><tspan x="0" y="0">鷹の台</tspan><tspan x="-12" y="14">キャンパス</tspan></text>
  <text class="cls-8" transform="translate(291.34 143.25)"><tspan x="0" y="0">小平市</tspan></text>
  <text class="cls-7" transform="translate(63.82 37.24)"><tspan x="0" y="0">東大和市</tspan></text>
  <text class="cls-7" transform="translate(151.83 199.25)"><tspan x="0" y="0">国分寺市</tspan></text>
  <g>
    <circle class="cls-4" cx="239.07" cy="44.09" r="6.64"/>
    <path class="cls-10" d="M239.07,33.44c-6.54,0-11.85,5.31-11.85,11.85s9.31,16.92,11.85,16.92,11.85-10.38,11.85-16.92-5.3-11.85-11.85-11.85ZM239.07,50.73c-3,0-5.44-2.43-5.44-5.44s2.43-5.44,5.44-5.44,5.44,2.43,5.44,5.44-2.43,5.44-5.44,5.44Z"/>
  </g>
</svg>