<?xml version="1.0" encoding="UTF-8"?>
<svg id="_レイヤー_1" data-name=" レイヤー 1" xmlns="http://www.w3.org/2000/svg" version="1.1" viewBox="0 0 300 270">
  <defs>
    <style>
      .cls-1, .cls-2, .cls-3, .cls-4, .cls-5, .cls-6 {
        stroke-width: 0px;
      }

      .cls-1, .cls-7 {
        fill: #231815;
      }

      .cls-2 {
        fill: #45b046;
      }

      .cls-7 {
        stroke-width: 2px;
      }

      .cls-7, .cls-8, .cls-9 {
        stroke: #231815;
        stroke-miterlimit: 10;
      }

      .cls-3 {
        fill: #040000;
      }

      .cls-4 {
        fill: #e47f10;
      }

      .cls-5, .cls-8 {
        fill: #fff;
      }

      .cls-6 {
        fill: #f9d500;
      }

      .cls-8 {
        stroke-width: 11px;
      }

      .cls-9 {
        fill: none;
        stroke-linecap: round;
        stroke-width: 5px;
      }
    </style>
  </defs>
  <path class="cls-6" d="M121.67,50.67c-10.89,11.99-28.72,27.24-29.96,59.74-1.37,35.74,1.35,71.44,6.29,89.07,4.94,17.62,3.54,38.58-20.19,39.44-4.82.19-3.03,17.35,7.64,15.06,9.99-2.14,22.54-13.19,36.23-15.06,9.51-1.3,7.14-10.46,19.84-17.55,11.86,13.18,14.92,27.15,24.98,34.38-6.7-8.28,38.96-39.78,38.96-39.78,0,0,5.56,4.38,13.47,10.38,4.68,3.54,12.76,13.06,19.91,15.82,19.85,7.66,46.03,8.36,56.4-2.93-21.28-10.79-28.9-18.96-22.47-39.3,6.43-20.35,14.51-84.05,0-109.35-14.51-25.31-151.09-39.91-151.09-39.91h0Z"/>
  <path class="cls-5" d="M114.23,114.19c.01,3.15.13,5.39.37,9.49-19.75-8.86-15.07,23.85,2.24,23.98,2.54,16.22,7.17,30.6,14.95,35.56,13.46,8.58,14.45,16.71,14.45,16.71l2,19.23-3.11,6.98,19.12,28.81,36.7-38.41-2.69-19.32,1.8-12.65s20.46-25.37,22.09-29.13c1.64-3.77,2.89-7.9,2.89-7.9l10.47-6.89,4.29-7.66-5.78-11.43h-7.16l-1.84-9.8-76.81-38.63-11.27,15.71-7.42,14.4-15.32,10.95h0Z"/>
  <g>
    <path class="cls-9" d="M270.74,80.01c14.03,34.09,11.68,99.16,3.69,119.64-7.99,20.48,3.79,39.11,20.81,37.65"/>
    <path class="cls-9" d="M259.76,111.76c4.88,33.64,2.06,74.08-3.93,89.44-7.99,20.48-.08,39.11,16.94,37.65"/>
    <path class="cls-9" d="M239.78,147.15c.12,22.84-2.46,43.91-6.42,54.05-7.99,20.48-.86,39.11,16.16,37.65"/>
    <path class="cls-9" d="M112.1,160.94c1.06,12.91,3.79,33.82,6.3,40.26,7.99,20.48.86,39.11-16.16,37.65"/>
    <path class="cls-9" d="M118.19,53.39c-40.39,28.17-27.56,127.34-19.57,147.81,7.99,20.48-3.79,39.11-20.81,37.65"/>
    <g>
      <path class="cls-8" d="M285.8,76.31l-21.35,16.76c-.97.69-2.15.94-3.28.79s-2.2-.7-2.96-1.62c-1.13-1.38-3.22-1.66-4.67-.62,0,0-9.19,5.9-18.03,11.34-.03.02-.05.03-.07.04-.76.43-7.53,4.15-14.49,7.41-1.76.83-3.54,1.63-5.24,2.34-12.25,5.11-30.9-4.59-37.06-9.4-9.3-7.26-22.31-16.96-34.96-41.28-8.5-3.04-17.53-6.34-21-7.77-7.28-3.01-17.29-6.52-15.85-17.37,2.45-18.41,24.62-24.36,36.86-26.35,10.2-1.65,19.41-3.03,28.95-2.74,9.03.28,21.21,5.2,24.54,8.14,2.72,1.16,5.17,2.85,7.11,5.2,2.27,2.75,6.47,3.31,9.37,1.25,0,0,15.23-9.61,25.96-8.31,17.9,2.17,48.53,43.07,49.74,50.13.81,4.75.28,8.72-3.57,12.07h0Z"/>
      <g>
        <path class="cls-2" d="M108.81,31.33c5.74-14.35,22.48-18.74,34.89-20.76,10.2-1.65,19.41-3.03,28.95-2.75,9.88.3,23.55,6.18,25.25,8.92s-31.96,24.71-31.96,24.71l-57.12-10.14h0Z"/>
        <path class="cls-2" d="M141.52,57.73c13.31,27.53,27.3,37.94,37.14,45.62,6.16,4.8,24.8,14.51,37.06,9.4,8.78-3.66,19.8-9.78,19.8-9.78l-65.89-52.29-28.1,7.05h0Z"/>
        <path class="cls-6" d="M289.37,64.24c-1.2-7.07-31.84-47.96-49.74-50.13-10.73-1.3-25.96,8.31-25.96,8.31-2.91,2.07-7.1,1.51-9.37-1.25h0c-8.33-10.13-26.11-7.92-34.45-4.58-2.8,1.12-8.57,4.75-8.57,4.75-8.24-1.21-13.53-1.03-26.68.91-13.61,2.01-27.37,3.75-27.76,14.68s8.58,14.35,15.85,17.36c7.28,3.01,39,14.16,39,14.16h.05s19.06,23.15,19.06,23.15c1.51,1.83,4.3,2.2,6.23.83l2.62-1.86c2.74-1.95,6.69-1.42,8.83,1.18,0,0,5.35,6.01,14.47,15.27,3.73,3.79,8.51,4.22,12.01,2.24,9.65-5.49,28.57-17.63,28.57-17.63,1.45-1.03,3.54-.75,4.67.62h0c1.51,1.83,4.3,2.2,6.23.83l21.34-16.76c3.85-3.35,4.38-7.32,3.57-12.07h0Z"/>
        <circle class="cls-3" cx="161.35" cy="20.76" r="3.36"/>
        <circle class="cls-4" cx="192.29" cy="103.79" r="2.76" transform="translate(64.05 280.71) rotate(-82.42)"/>
        <circle class="cls-4" cx="220.15" cy="30.48" r="2.76"/>
        <circle class="cls-4" cx="208.92" cy="55.53" r="2.76"/>
      </g>
    </g>
    <path class="cls-9" d="M140.28,81.4c-5.24,13.96-15.94,32.37-29.43,33.42"/>
    <ellipse class="cls-1" cx="185.56" cy="128.55" rx="3.93" ry="5.2"/>
    <ellipse class="cls-1" cx="139.08" cy="127.96" rx="3.93" ry="5.2"/>
    <path class="cls-9" d="M148.24,159.99c1.83,11.1,8.88,11.1,10.62,11.1,2.48,0,10.19,0,12.12-11.1"/>
    <path class="cls-9" d="M113.96,116.25c0,11.12-.67,35.6,10.16,56.85,14.95,29.35,61.12,24.52,76.83,10.13s21.21-28.21,21.21-28.21"/>
    <path class="cls-9" d="M225.04,123.06c10.47-10.74,24.6,14.66.73,24.48"/>
    <path class="cls-9" d="M113.62,122.38c-10.17-5.37-21.51,16.84.35,24.58"/>
    <path class="cls-9" d="M143,191.21s7.56,16.18,5.24,27.96"/>
    <path class="cls-9" d="M200.95,183.22c-3.98,17.62,0,28.01,0,28.01"/>
    <path class="cls-9" d="M141.01,220.72c-4.51,1.31-13.71,13.93-15.45,16.66-1.74,2.73,35.14,22.08,38.84,20.26,3.7-1.82-23.39-36.92-23.39-36.92h0Z"/>
    <path class="cls-9" d="M204.08,216.55c7.57,1.46,23.01,15.5,25.92,18.54s-58.96,24.56-65.17,22.54c-6.21-2.03,39.25-41.08,39.25-41.08h0Z"/>
    <path class="cls-9" d="M125.56,237.38c-20.41,6.66-39.46,13.22-52.07,26.3"/>
    <path class="cls-9" d="M227.98,238.93c21.26,6.17,41.59,12.69,54.87,24.75"/>
  </g>
  <path class="cls-4" d="M187.44,46.55c-.11-.23-.35-.36-.6-.34l-3.01.29-1.45-2.65c-.12-.22-.37-.35-.62-.31s-.45.22-.51.47l-.66,2.95-2.97.56c-.25.05-.44.24-.49.49s.07.5.29.63l2.61,1.54-.39,3c-.03.25.1.5.32.61.22.12.5.09.69-.08l2.27-2,2.73,1.3c.23.11.5.07.68-.11s.24-.45.14-.68l-1.21-2.77,2.08-2.2c.18-.19.22-.46.11-.68h0Z"/>
  <path class="cls-7" d="M69.93,255.09c-.67,0-1.22-.51-1.29-1.17-.2-2.06-.94-4.88-1.73-7.87l-.02-.05c-.45-1.68-.95-3.59-1.39-5.5-1.23-5.42-2.31-12.38.22-18.05.4-.93.98-3.3.38-8.75-.9-8.51-4.04-19.43-7.82-27.18-1.72-3.56-3.54-6.34-5.28-8.05-.77-.76-2.01-1.13-3.79-1.13-2.81,0-6.47.91-8.04,1.29l-2.09.54c-2.23.59-4.34,1.14-6.11,1.43-1.35.23-2.07.77-2.16,1.62-.17,1.48,2,4.33,3.62,4.76l.17.05h.17c.15.01.37.02.65.02,1.5,0,4.72-.08,6.1-.11h.24c3.6-.12,5.76-.22,6.3-.26h.09c.11-.03.19-.04.26-.04.57,0,1.08.38,1.25.91.11.33.07.69-.09.99-.16.31-.43.53-.76.63-.33.11-1.5.19-6.97.36-3.01.07-4.97.1-6.18.1-.48,0-.84,0-1.08-.02-2.77-.11-5.85-3.84-6.22-6.65-.3-2.25.85-3.94,3.15-4.65.31-.1.65-.18,1.06-.25,1.65-.27,3.68-.8,5.82-1.36l2.17-.56c2.86-.71,5.88-1.36,8.56-1.36s4.44.61,5.72,1.87c1.97,1.94,3.92,4.89,5.79,8.76,3.9,7.99,7.14,19.25,8.07,28.03.52,4.6.32,7.99-.58,10.07-2.22,4.99-1.21,11.41-.07,16.43.42,1.82.88,3.57,1.33,5.27l.05.18c.85,3.22,1.59,6.01,1.81,8.3.06.61-.32,1.18-.9,1.36-.09.03-.18.05-.27.06-.04,0-.08,0-.12,0h-.01Z"/>
  <path class="cls-7" d="M40.59,177.53c-.47,0-.9-.25-1.13-.65-5.64-9.82-16.96-29.18-19.51-32.11-2.75-3.15-4.62-3.61-5.49-3.61-.31,0-.58.06-.82.18l-.11.06-.1.08c-1.05.78-1.25,3.09.14,5.3,4.8,7.72,12.66,22.02,14.63,26.05.32.64.05,1.42-.59,1.73-.18.09-.37.13-.57.13-.5,0-.94-.28-1.16-.73-1.73-3.53-9.48-17.74-14.5-25.82-2.04-3.26-1.81-7.02.52-8.75.42-.31,1.32-.84,2.63-.84,2.25,0,4.8,1.56,7.39,4.51,2.69,3.09,13.72,21.9,19.81,32.52.17.3.22.65.13.99s-.31.61-.61.78c-.09.05-.17.09-.27.12-.12.04-.25.06-.38.06h0Z"/>
  <path class="cls-7" d="M17.51,187.3c-.53,0-1.01-.33-1.2-.82l-.03-.07c-.03-.06-.04-.1-.06-.13-1.4-3.35-.9-6.92,1.39-9.8,2.04-2.57,5.09-4.11,8.13-4.11.49,0,.98.04,1.45.13,2.84.48,5.16,2.41,6.53,5.43.3.65.01,1.42-.64,1.72-.17.08-.35.12-.54.12-.51,0-.97-.3-1.18-.76-1.04-2.28-2.59-3.61-4.61-3.95-.32-.06-.66-.09-1-.09-2.21,0-4.61,1.23-6.12,3.13-.8,1.01-2.5,3.72-1.03,7.19l.03.08c.05.1.08.18.1.25.11.34.07.69-.09.99-.16.31-.43.53-.76.64-.13.04-.26.06-.39.06h.01Z"/>
  <path class="cls-7" d="M45.56,205.4c-1.07,0-2.31-.39-3.7-1.15-.63-.35-.86-1.13-.51-1.76.23-.42.67-.67,1.14-.67.22,0,.43.06.62.16.69.38,1.31.63,1.83.75l1.5.33.3-1.5c.1-.48.25-1.83-.38-4.08-.96-3.43-3.07-6.63-5.16-7.77-.63-.34-.86-1.13-.52-1.76.23-.42.67-.67,1.14-.67.22,0,.43.06.62.16,3.98,2.18,6.87,8.5,6.97,12.83.07,2.96-1.18,4.16-1.93,4.62-.25.16-.52.28-.79.36-.35.11-.73.17-1.13.17v-.02Z"/>
  <path class="cls-7" d="M39.92,213.75c-.67,0-1.3-.16-1.86-.48-.77-.41-1.41-1.13-1.81-2.04-.14-.32-.15-.67-.03-.99.13-.32.37-.58.68-.72.17-.08.35-.12.53-.12.51,0,.98.31,1.18.78l.05.1.5.79.86.03c.78,0,1.57-.57,1.98-1.41.32-.64.52-1.67-.36-2.92l-.23-.32c-.42-.6-.87-1.24-1.43-1.97-8.09-10.99-15.92-17.81-20.44-17.81-.59,0-1.13.11-1.61.33-.48.21-.9.51-1.31.94-1.48,1.55-3.05,4.19-3.13,5.92-.04.7-.6,1.24-1.29,1.24h-.07c-.7-.04-1.25-.64-1.22-1.36.14-2.95,2.57-6.25,3.84-7.58.65-.69,1.37-1.2,2.16-1.54.79-.35,1.63-.52,2.51-.52,3.27,0,10.57,2.45,22.63,18.83.6.78,1.11,1.51,1.48,2.04l.23.32c1.55,2.23,1.44,4.89-.28,6.79-.64.71-1.43,1.22-2.28,1.48-.43.13-.86.2-1.28.2h0Z"/>
  <path class="cls-7" d="M16.84,216.55c-.22,0-.43-.06-.63-.17-.63-.35-.85-1.14-.51-1.76.47-.85.44-2.3.21-4.85-.1-1.05-.19-2.03-.15-2.89.03-.69.6-1.24,1.29-1.24h.08c.34.02.66.17.89.42.24.26.36.59.34.93-.03.68.06,1.57.14,2.51.21,2.19.44,4.66-.52,6.37-.16.3-.43.51-.75.61-.13.04-.26.06-.39.06Z"/>
  <path class="cls-7" d="M24.94,211.74c-.22-.01-.43-.08-.61-.19l-.29-.18-.34-.04c-.76-.09-2.14-.14-4.09-.14h-.11c-.3,0-.52,0-.63,0-.35-.02-.67-.16-.9-.42-.24-.26-.36-.59-.34-.93.03-.7.59-1.24,1.28-1.24h.7c4.41.02,5.65.19,6.29.86.25.26.41.71.4,1.06-.03.54-.4,1.01-.91,1.17-.13.04-.25.06-.38.06h-.08Z"/>
  <path class="cls-7" d="M30.61,243.57c-.34-.03-.65-.17-.87-.42l-.22-.24-.3-.13s-.05-.03-.07-.04l-.31-.18c-.19-.11-.37-.22-.54-.33l-.06-.04c-3.08-1.87-5.95-4.97-8.47-7.71l-2.81-3.02c-8.53-9.11-19.15-20.46-10.05-35.09.6-.98,1.9-2.14,4.66-2.14.18,0,.37,0,.56.02,6.01.35,24.72,10.09,27.37,15.96.27.6.43,1.18.5,1.8.2,1.74-.55,3.38-2,4.4-.92.65-2.02.99-3.16.99-.88,0-1.77-.21-2.58-.61-1.14-.56-2.17-1.29-3.18-2.01-1.18-.84-2.29-1.63-3.44-2.06-.67-.25-1.01-1-.76-1.67.19-.51.68-.84,1.21-.84.16,0,.31.03.46.09,1.46.55,2.77,1.48,4.03,2.37.97.69,1.89,1.34,2.82,1.8.46.23.94.34,1.43.34.61,0,1.21-.18,1.68-.52.68-.48,1.01-1.19.91-2-.03-.25-.09-.58-.28-1.02-1.64-3.4-17.48-13.99-25.15-14.43-.17-.01-.31-.01-.44-.01-1.25,0-2.05.3-2.44.91h0c-8.05,12.95,1,22.61,9.74,31.96l2.82,3.03c2.41,2.61,5.15,5.58,8.05,7.34.16.11.27.17.36.23l.27.16.12.05c1.07.4,1.58,1.03,1.52,1.87-.04.54-.4.99-.91,1.15-.13.04-.25.06-.38.06h-.1Z"/>
  <path class="cls-7" d="M35.16,265.86c-.58,0-1.09-.39-1.24-.95l-6.4-22.93c-.1-.35-.05-.74.15-1.06.16-.27.41-.46.69-.52.18-.05.3-.07.42-.07.58,0,1.09.39,1.24.95l6.4,22.93c.19.68-.19,1.38-.86,1.59h-.04c-.12.05-.24.06-.36.06h0Z"/>
</svg>